<svg width="862" height="152" viewBox="0 0 862 152" fill="none" xmlns="http://www.w3.org/2000/svg">
<path d="M4 113.5V8H109.5L4 113.5Z" fill="black" stroke="black" stroke-width="7"/>
<path d="M4.5 116V143.5H108L53 65.5L4.5 114" stroke="black" stroke-width="7"/>
<path d="M147 143L205.5 14L265.5 143H147Z" stroke="black" stroke-width="7"/>
<path d="M449 144L507.5 15L567.5 144H449Z" stroke="black" stroke-width="7"/>
<path d="M609 143V12.5L663 98L717.5 12.5V143H609Z" stroke="black" stroke-width="7"/>
<path d="M411 52L410.573 48.8889C408.62 34.6591 400.628 21.9617 388.642 14.0467V14.0467C383.59 10.7101 377.972 8.32128 372.064 6.99702L367.763 6.03304C357.502 3.7331 346.782 4.63474 337.049 8.6164V8.6164C325.42 13.3735 315.936 22.2235 310.387 33.4955L309.086 36.1381C305.082 44.2706 303 53.2141 303 62.2788V85.8042C303 98.6736 306.628 111.282 313.468 122.184L315.038 124.685C317.664 128.871 320.908 132.636 324.66 135.852V135.852C332.363 142.454 341.925 146.505 352.027 147.444L358 148M358 148V148C372.631 148 386.677 141.944 396.684 131.27V131.27C405.881 121.46 411 108.516 411 95.0683V80.5H358V148Z" stroke="black" stroke-width="7"/>
<path d="M771 40V7H858V40H815V113H858V144H771V113H815V40H771Z" fill="black"/>
<path d="M815 40H771V7H858V40H815ZM815 40V113M815 113H771V144H858V113H815Z" stroke="black" stroke-width="7"/>
</svg>
